{
	"asset":{
		"generator":"Khronos glTF Blender I/O v4.3.47",
		"version":"2.0"
	},
	"scene":0,
	"scenes":[
		{
			"name":"Scene",
			"nodes":[
				20
			]
		}
	],
	"nodes":[
		{
			"name":"spine.003",
			"translation":[
				0,
				0.15999996662139893,
				0
			]
		},
		{
			"name":"arm.000_L.002",
			"rotation":[
				-4.0076776270230063e-16,
				-3.1090581498194325e-15,
				5.587935447692871e-09,
				1
			],
			"translation":[
				-1.0617077350616455e-07,
				0.29017239809036255,
				1.1894701036812888e-16
			]
		},
		{
			"children":[
				1
			],
			"name":"arm.000_L.001",
			"rotation":[
				2.5280924020876228e-09,
				4.9031207538519084e-08,
				0.044927775859832764,
				0.9989902377128601
			],
			"scale":[
				1,
				0.9999999403953552,
				1
			],
			"translation":[
				-8.195638656616211e-08,
				0.24186773598194122,
				1.021405182655144e-14
			]
		},
		{
			"children":[
				2
			],
			"name":"arm.000_L",
			"rotation":[
				-3.948964177880043e-08,
				-3.486075783598608e-08,
				-0.7496781349182129,
				0.6618027091026306
			],
			"scale":[
				0.9999999403953552,
				0.9999999403953552,
				1
			],
			"translation":[
				0,
				0.15999996662139893,
				0
			]
		},
		{
			"name":"arm.000_R.002",
			"rotation":[
				-4.0076776270230063e-16,
				3.1090581498194325e-15,
				-5.587935447692871e-09,
				1
			],
			"translation":[
				1.0617077350616455e-07,
				0.29017239809036255,
				1.1894701036812888e-16
			]
		},
		{
			"children":[
				4
			],
			"name":"arm.000_R.001",
			"rotation":[
				2.5280924020876228e-09,
				-4.9031207538519084e-08,
				-0.044927775859832764,
				0.9989902377128601
			],
			"scale":[
				1,
				0.9999999403953552,
				1
			],
			"translation":[
				8.195638656616211e-08,
				0.24186773598194122,
				1.021405182655144e-14
			]
		},
		{
			"children":[
				5
			],
			"name":"arm.000_R",
			"rotation":[
				-3.948964177880043e-08,
				3.486075783598608e-08,
				0.7496781349182129,
				0.6618027091026306
			],
			"scale":[
				0.9999999403953552,
				0.9999999403953552,
				1
			],
			"translation":[
				0,
				0.15999996662139893,
				0
			]
		},
		{
			"children":[
				0,
				3,
				6
			],
			"name":"spine.002",
			"translation":[
				0,
				0.13999998569488525,
				0
			]
		},
		{
			"children":[
				7
			],
			"name":"spine.001",
			"translation":[
				0,
				0.30000001192092896,
				0
			]
		},
		{
			"children":[
				8
			],
			"name":"spine.0",
			"translation":[
				0,
				0.9000000357627869,
				0
			]
		},
		{
			"name":"leg.000_L.003",
			"rotation":[
				-4.327821656602282e-08,
				3.0347969470767566e-08,
				-0.6463748812675476,
				0.7630199790000916
			],
			"translation":[
				3.3306690738754696e-16,
				0.4500000476837158,
				-1.1102230246251565e-16
			]
		},
		{
			"children":[
				10
			],
			"name":"leg.000_L.002",
			"rotation":[
				0.011361438781023026,
				8.579494448213154e-08,
				-1.8325864159507432e-09,
				0.9999354481697083
			],
			"translation":[
				-3.3306690738754696e-16,
				0.44011369347572327,
				-8.381903171539307e-09
			]
		},
		{
			"children":[
				11
			],
			"name":"leg.000_L.001",
			"rotation":[
				-0.8239076137542725,
				-7.308774030434506e-08,
				1.0390449034503035e-07,
				0.5667241811752319
			],
			"scale":[
				1,
				1,
				1.0000001192092896
			],
			"translation":[
				0,
				0.14866070449352264,
				-3.3527612686157227e-08
			]
		},
		{
			"children":[
				12
			],
			"name":"leg.000_L",
			"rotation":[
				-0.4073277413845062,
				-0.578000009059906,
				-0.4073277413845062,
				0.5780001282691956
			],
			"scale":[
				1,
				0.9999999403953552,
				0.9999999403953552
			],
			"translation":[
				0,
				0.9000000357627869,
				0
			]
		},
		{
			"name":"leg.000_R.003",
			"rotation":[
				-4.327821656602282e-08,
				-3.0347969470767566e-08,
				0.6463748812675476,
				0.7630199790000916
			],
			"translation":[
				-3.3306690738754696e-16,
				0.4500000476837158,
				-1.1102230246251565e-16
			]
		},
		{
			"children":[
				14
			],
			"name":"leg.000_R.002",
			"rotation":[
				0.011361438781023026,
				-8.579494448213154e-08,
				1.8325864159507432e-09,
				0.9999354481697083
			],
			"translation":[
				3.3306690738754696e-16,
				0.44011369347572327,
				-8.381903171539307e-09
			]
		},
		{
			"children":[
				15
			],
			"name":"leg.000_R.001",
			"rotation":[
				-0.8239076137542725,
				7.308774030434506e-08,
				-1.0390449034503035e-07,
				0.5667241811752319
			],
			"scale":[
				1,
				1,
				1.0000001192092896
			],
			"translation":[
				0,
				0.14866070449352264,
				-3.3527612686157227e-08
			]
		},
		{
			"children":[
				16
			],
			"name":"leg.000_R",
			"rotation":[
				-0.4073277413845062,
				0.578000009059906,
				0.4073277413845062,
				0.5780001282691956
			],
			"scale":[
				1,
				0.9999999403953552,
				0.9999999403953552
			],
			"translation":[
				0,
				0.9000000357627869,
				0
			]
		},
		{
			"mesh":0,
			"name":"Body",
			"skin":0
		},
		{
			"mesh":1,
			"name":"Hair",
			"skin":0
		},
		{
			"children":[
				18,
				19,
				9,
				13,
				17
			],
			"name":"Armature"
		}
	],
	"animations":[
		{
			"channels":[
				{
					"sampler":0,
					"target":{
						"node":9,
						"path":"translation"
					}
				},
				{
					"sampler":1,
					"target":{
						"node":9,
						"path":"rotation"
					}
				},
				{
					"sampler":2,
					"target":{
						"node":9,
						"path":"scale"
					}
				},
				{
					"sampler":3,
					"target":{
						"node":8,
						"path":"translation"
					}
				},
				{
					"sampler":4,
					"target":{
						"node":8,
						"path":"rotation"
					}
				},
				{
					"sampler":5,
					"target":{
						"node":8,
						"path":"scale"
					}
				},
				{
					"sampler":6,
					"target":{
						"node":7,
						"path":"translation"
					}
				},
				{
					"sampler":7,
					"target":{
						"node":7,
						"path":"rotation"
					}
				},
				{
					"sampler":8,
					"target":{
						"node":7,
						"path":"scale"
					}
				},
				{
					"sampler":9,
					"target":{
						"node":0,
						"path":"translation"
					}
				},
				{
					"sampler":10,
					"target":{
						"node":0,
						"path":"rotation"
					}
				},
				{
					"sampler":11,
					"target":{
						"node":0,
						"path":"scale"
					}
				},
				{
					"sampler":12,
					"target":{
						"node":3,
						"path":"translation"
					}
				},
				{
					"sampler":13,
					"target":{
						"node":3,
						"path":"rotation"
					}
				},
				{
					"sampler":14,
					"target":{
						"node":3,
						"path":"scale"
					}
				},
				{
					"sampler":15,
					"target":{
						"node":2,
						"path":"translation"
					}
				},
				{
					"sampler":16,
					"target":{
						"node":2,
						"path":"rotation"
					}
				},
				{
					"sampler":17,
					"target":{
						"node":2,
						"path":"scale"
					}
				},
				{
					"sampler":18,
					"target":{
						"node":1,
						"path":"translation"
					}
				},
				{
					"sampler":19,
					"target":{
						"node":1,
						"path":"rotation"
					}
				},
				{
					"sampler":20,
					"target":{
						"node":1,
						"path":"scale"
					}
				},
				{
					"sampler":21,
					"target":{
						"node":6,
						"path":"translation"
					}
				},
				{
					"sampler":22,
					"target":{
						"node":6,
						"path":"rotation"
					}
				},
				{
					"sampler":23,
					"target":{
						"node":6,
						"path":"scale"
					}
				},
				{
					"sampler":24,
					"target":{
						"node":5,
						"path":"translation"
					}
				},
				{
					"sampler":25,
					"target":{
						"node":5,
						"path":"rotation"
					}
				},
				{
					"sampler":26,
					"target":{
						"node":5,
						"path":"scale"
					}
				},
				{
					"sampler":27,
					"target":{
						"node":4,
						"path":"translation"
					}
				},
				{
					"sampler":28,
					"target":{
						"node":4,
						"path":"rotation"
					}
				},
				{
					"sampler":29,
					"target":{
						"node":4,
						"path":"scale"
					}
				},
				{
					"sampler":30,
					"target":{
						"node":13,
						"path":"translation"
					}
				},
				{
					"sampler":31,
					"target":{
						"node":13,
						"path":"rotation"
					}
				},
				{
					"sampler":32,
					"target":{
						"node":13,
						"path":"scale"
					}
				},
				{
					"sampler":33,
					"target":{
						"node":12,
						"path":"translation"
					}
				},
				{
					"sampler":34,
					"target":{
						"node":12,
						"path":"rotation"
					}
				},
				{
					"sampler":35,
					"target":{
						"node":12,
						"path":"scale"
					}
				},
				{
					"sampler":36,
					"target":{
						"node":11,
						"path":"translation"
					}
				},
				{
					"sampler":37,
					"target":{
						"node":11,
						"path":"rotation"
					}
				},
				{
					"sampler":38,
					"target":{
						"node":11,
						"path":"scale"
					}
				},
				{
					"sampler":39,
					"target":{
						"node":10,
						"path":"translation"
					}
				},
				{
					"sampler":40,
					"target":{
						"node":10,
						"path":"rotation"
					}
				},
				{
					"sampler":41,
					"target":{
						"node":10,
						"path":"scale"
					}
				},
				{
					"sampler":42,
					"target":{
						"node":17,
						"path":"translation"
					}
				},
				{
					"sampler":43,
					"target":{
						"node":17,
						"path":"rotation"
					}
				},
				{
					"sampler":44,
					"target":{
						"node":17,
						"path":"scale"
					}
				},
				{
					"sampler":45,
					"target":{
						"node":16,
						"path":"translation"
					}
				},
				{
					"sampler":46,
					"target":{
						"node":16,
						"path":"rotation"
					}
				},
				{
					"sampler":47,
					"target":{
						"node":16,
						"path":"scale"
					}
				},
				{
					"sampler":48,
					"target":{
						"node":15,
						"path":"translation"
					}
				},
				{
					"sampler":49,
					"target":{
						"node":15,
						"path":"rotation"
					}
				},
				{
					"sampler":50,
					"target":{
						"node":15,
						"path":"scale"
					}
				},
				{
					"sampler":51,
					"target":{
						"node":14,
						"path":"translation"
					}
				},
				{
					"sampler":52,
					"target":{
						"node":14,
						"path":"rotation"
					}
				},
				{
					"sampler":53,
					"target":{
						"node":14,
						"path":"scale"
					}
				}
			],
			"name":"idle",
			"samplers":[
				{
					"input":13,
					"interpolation":"LINEAR",
					"output":14
				},
				{
					"input":15,
					"interpolation":"LINEAR",
					"output":16
				},
				{
					"input":13,
					"interpolation":"LINEAR",
					"output":17
				},
				{
					"input":13,
					"interpolation":"LINEAR",
					"output":18
				},
				{
					"input":13,
					"interpolation":"LINEAR",
					"output":19
				},
				{
					"input":13,
					"interpolation":"LINEAR",
					"output":20
				},
				{
					"input":13,
					"interpolation":"LINEAR",
					"output":21
				},
				{
					"input":13,
					"interpolation":"LINEAR",
					"output":22
				},
				{
					"input":13,
					"interpolation":"LINEAR",
					"output":23
				},
				{
					"input":13,
					"interpolation":"LINEAR",
					"output":24
				},
				{
					"input":15,
					"interpolation":"LINEAR",
					"output":25
				},
				{
					"input":13,
					"interpolation":"LINEAR",
					"output":26
				},
				{
					"input":13,
					"interpolation":"LINEAR",
					"output":27
				},
				{
					"input":13,
					"interpolation":"LINEAR",
					"output":28
				},
				{
					"input":13,
					"interpolation":"LINEAR",
					"output":29
				},
				{
					"input":13,
					"interpolation":"LINEAR",
					"output":30
				},
				{
					"input":15,
					"interpolation":"LINEAR",
					"output":31
				},
				{
					"input":13,
					"interpolation":"LINEAR",
					"output":32
				},
				{
					"input":13,
					"interpolation":"LINEAR",
					"output":33
				},
				{
					"input":13,
					"interpolation":"LINEAR",
					"output":34
				},
				{
					"input":13,
					"interpolation":"LINEAR",
					"output":35
				},
				{
					"input":13,
					"interpolation":"LINEAR",
					"output":36
				},
				{
					"input":13,
					"interpolation":"LINEAR",
					"output":37
				},
				{
					"input":13,
					"interpolation":"LINEAR",
					"output":38
				},
				{
					"input":13,
					"interpolation":"LINEAR",
					"output":39
				},
				{
					"input":15,
					"interpolation":"LINEAR",
					"output":40
				},
				{
					"input":13,
					"interpolation":"LINEAR",
					"output":41
				},
				{
					"input":13,
					"interpolation":"LINEAR",
					"output":42
				},
				{
					"input":13,
					"interpolation":"LINEAR",
					"output":43
				},
				{
					"input":13,
					"interpolation":"LINEAR",
					"output":44
				},
				{
					"input":13,
					"interpolation":"LINEAR",
					"output":45
				},
				{
					"input":13,
					"interpolation":"LINEAR",
					"output":46
				},
				{
					"input":13,
					"interpolation":"LINEAR",
					"output":47
				},
				{
					"input":13,
					"interpolation":"LINEAR",
					"output":48
				},
				{
					"input":13,
					"interpolation":"LINEAR",
					"output":49
				},
				{
					"input":13,
					"interpolation":"LINEAR",
					"output":50
				},
				{
					"input":13,
					"interpolation":"LINEAR",
					"output":51
				},
				{
					"input":13,
					"interpolation":"LINEAR",
					"output":52
				},
				{
					"input":13,
					"interpolation":"LINEAR",
					"output":53
				},
				{
					"input":13,
					"interpolation":"LINEAR",
					"output":54
				},
				{
					"input":13,
					"interpolation":"LINEAR",
					"output":55
				},
				{
					"input":13,
					"interpolation":"LINEAR",
					"output":56
				},
				{
					"input":13,
					"interpolation":"LINEAR",
					"output":57
				},
				{
					"input":13,
					"interpolation":"LINEAR",
					"output":58
				},
				{
					"input":13,
					"interpolation":"LINEAR",
					"output":59
				},
				{
					"input":13,
					"interpolation":"LINEAR",
					"output":60
				},
				{
					"input":13,
					"interpolation":"LINEAR",
					"output":61
				},
				{
					"input":13,
					"interpolation":"LINEAR",
					"output":62
				},
				{
					"input":13,
					"interpolation":"LINEAR",
					"output":63
				},
				{
					"input":13,
					"interpolation":"LINEAR",
					"output":64
				},
				{
					"input":13,
					"interpolation":"LINEAR",
					"output":65
				},
				{
					"input":13,
					"interpolation":"LINEAR",
					"output":66
				},
				{
					"input":13,
					"interpolation":"LINEAR",
					"output":67
				},
				{
					"input":13,
					"interpolation":"LINEAR",
					"output":68
				}
			]
		},
		{
			"channels":[
				{
					"sampler":0,
					"target":{
						"node":9,
						"path":"translation"
					}
				},
				{
					"sampler":1,
					"target":{
						"node":9,
						"path":"rotation"
					}
				},
				{
					"sampler":2,
					"target":{
						"node":9,
						"path":"scale"
					}
				},
				{
					"sampler":3,
					"target":{
						"node":8,
						"path":"translation"
					}
				},
				{
					"sampler":4,
					"target":{
						"node":8,
						"path":"rotation"
					}
				},
				{
					"sampler":5,
					"target":{
						"node":8,
						"path":"scale"
					}
				},
				{
					"sampler":6,
					"target":{
						"node":7,
						"path":"translation"
					}
				},
				{
					"sampler":7,
					"target":{
						"node":7,
						"path":"rotation"
					}
				},
				{
					"sampler":8,
					"target":{
						"node":7,
						"path":"scale"
					}
				},
				{
					"sampler":9,
					"target":{
						"node":0,
						"path":"translation"
					}
				},
				{
					"sampler":10,
					"target":{
						"node":0,
						"path":"rotation"
					}
				},
				{
					"sampler":11,
					"target":{
						"node":0,
						"path":"scale"
					}
				},
				{
					"sampler":12,
					"target":{
						"node":3,
						"path":"translation"
					}
				},
				{
					"sampler":13,
					"target":{
						"node":3,
						"path":"rotation"
					}
				},
				{
					"sampler":14,
					"target":{
						"node":3,
						"path":"scale"
					}
				},
				{
					"sampler":15,
					"target":{
						"node":2,
						"path":"translation"
					}
				},
				{
					"sampler":16,
					"target":{
						"node":2,
						"path":"rotation"
					}
				},
				{
					"sampler":17,
					"target":{
						"node":2,
						"path":"scale"
					}
				},
				{
					"sampler":18,
					"target":{
						"node":1,
						"path":"translation"
					}
				},
				{
					"sampler":19,
					"target":{
						"node":1,
						"path":"rotation"
					}
				},
				{
					"sampler":20,
					"target":{
						"node":1,
						"path":"scale"
					}
				},
				{
					"sampler":21,
					"target":{
						"node":6,
						"path":"translation"
					}
				},
				{
					"sampler":22,
					"target":{
						"node":6,
						"path":"rotation"
					}
				},
				{
					"sampler":23,
					"target":{
						"node":6,
						"path":"scale"
					}
				},
				{
					"sampler":24,
					"target":{
						"node":5,
						"path":"translation"
					}
				},
				{
					"sampler":25,
					"target":{
						"node":5,
						"path":"rotation"
					}
				},
				{
					"sampler":26,
					"target":{
						"node":5,
						"path":"scale"
					}
				},
				{
					"sampler":27,
					"target":{
						"node":4,
						"path":"translation"
					}
				},
				{
					"sampler":28,
					"target":{
						"node":4,
						"path":"rotation"
					}
				},
				{
					"sampler":29,
					"target":{
						"node":4,
						"path":"scale"
					}
				},
				{
					"sampler":30,
					"target":{
						"node":13,
						"path":"translation"
					}
				},
				{
					"sampler":31,
					"target":{
						"node":13,
						"path":"rotation"
					}
				},
				{
					"sampler":32,
					"target":{
						"node":13,
						"path":"scale"
					}
				},
				{
					"sampler":33,
					"target":{
						"node":12,
						"path":"translation"
					}
				},
				{
					"sampler":34,
					"target":{
						"node":12,
						"path":"rotation"
					}
				},
				{
					"sampler":35,
					"target":{
						"node":12,
						"path":"scale"
					}
				},
				{
					"sampler":36,
					"target":{
						"node":11,
						"path":"translation"
					}
				},
				{
					"sampler":37,
					"target":{
						"node":11,
						"path":"rotation"
					}
				},
				{
					"sampler":38,
					"target":{
						"node":11,
						"path":"scale"
					}
				},
				{
					"sampler":39,
					"target":{
						"node":10,
						"path":"translation"
					}
				},
				{
					"sampler":40,
					"target":{
						"node":10,
						"path":"rotation"
					}
				},
				{
					"sampler":41,
					"target":{
						"node":10,
						"path":"scale"
					}
				},
				{
					"sampler":42,
					"target":{
						"node":17,
						"path":"translation"
					}
				},
				{
					"sampler":43,
					"target":{
						"node":17,
						"path":"rotation"
					}
				},
				{
					"sampler":44,
					"target":{
						"node":17,
						"path":"scale"
					}
				},
				{
					"sampler":45,
					"target":{
						"node":16,
						"path":"translation"
					}
				},
				{
					"sampler":46,
					"target":{
						"node":16,
						"path":"rotation"
					}
				},
				{
					"sampler":47,
					"target":{
						"node":16,
						"path":"scale"
					}
				},
				{
					"sampler":48,
					"target":{
						"node":15,
						"path":"translation"
					}
				},
				{
					"sampler":49,
					"target":{
						"node":15,
						"path":"rotation"
					}
				},
				{
					"sampler":50,
					"target":{
						"node":15,
						"path":"scale"
					}
				},
				{
					"sampler":51,
					"target":{
						"node":14,
						"path":"translation"
					}
				},
				{
					"sampler":52,
					"target":{
						"node":14,
						"path":"rotation"
					}
				},
				{
					"sampler":53,
					"target":{
						"node":14,
						"path":"scale"
					}
				}
			],
			"name":"walk",
			"samplers":[
				{
					"input":15,
					"interpolation":"LINEAR",
					"output":69
				},
				{
					"input":15,
					"interpolation":"LINEAR",
					"output":70
				},
				{
					"input":13,
					"interpolation":"LINEAR",
					"output":71
				},
				{
					"input":13,
					"interpolation":"LINEAR",
					"output":72
				},
				{
					"input":15,
					"interpolation":"LINEAR",
					"output":73
				},
				{
					"input":13,
					"interpolation":"LINEAR",
					"output":74
				},
				{
					"input":13,
					"interpolation":"LINEAR",
					"output":75
				},
				{
					"input":15,
					"interpolation":"LINEAR",
					"output":76
				},
				{
					"input":13,
					"interpolation":"LINEAR",
					"output":77
				},
				{
					"input":13,
					"interpolation":"LINEAR",
					"output":78
				},
				{
					"input":15,
					"interpolation":"LINEAR",
					"output":79
				},
				{
					"input":13,
					"interpolation":"LINEAR",
					"output":80
				},
				{
					"input":13,
					"interpolation":"LINEAR",
					"output":81
				},
				{
					"input":15,
					"interpolation":"LINEAR",
					"output":82
				},
				{
					"input":13,
					"interpolation":"LINEAR",
					"output":83
				},
				{
					"input":13,
					"interpolation":"LINEAR",
					"output":84
				},
				{
					"input":15,
					"interpolation":"LINEAR",
					"output":85
				},
				{
					"input":13,
					"interpolation":"LINEAR",
					"output":86
				},
				{
					"input":13,
					"interpolation":"LINEAR",
					"output":87
				},
				{
					"input":15,
					"interpolation":"LINEAR",
					"output":88
				},
				{
					"input":13,
					"interpolation":"LINEAR",
					"output":89
				},
				{
					"input":13,
					"interpolation":"LINEAR",
					"output":90
				},
				{
					"input":15,
					"interpolation":"LINEAR",
					"output":91
				},
				{
					"input":13,
					"interpolation":"LINEAR",
					"output":92
				},
				{
					"input":13,
					"interpolation":"LINEAR",
					"output":93
				},
				{
					"input":15,
					"interpolation":"LINEAR",
					"output":94
				},
				{
					"input":13,
					"interpolation":"LINEAR",
					"output":95
				},
				{
					"input":13,
					"interpolation":"LINEAR",
					"output":96
				},
				{
					"input":15,
					"interpolation":"LINEAR",
					"output":97
				},
				{
					"input":13,
					"interpolation":"LINEAR",
					"output":98
				},
				{
					"input":13,
					"interpolation":"LINEAR",
					"output":99
				},
				{
					"input":15,
					"interpolation":"LINEAR",
					"output":100
				},
				{
					"input":13,
					"interpolation":"LINEAR",
					"output":101
				},
				{
					"input":13,
					"interpolation":"LINEAR",
					"output":102
				},
				{
					"input":15,
					"interpolation":"LINEAR",
					"output":103
				},
				{
					"input":13,
					"interpolation":"LINEAR",
					"output":104
				},
				{
					"input":13,
					"interpolation":"LINEAR",
					"output":105
				},
				{
					"input":15,
					"interpolation":"LINEAR",
					"output":106
				},
				{
					"input":13,
					"interpolation":"LINEAR",
					"output":107
				},
				{
					"input":13,
					"interpolation":"LINEAR",
					"output":108
				},
				{
					"input":15,
					"interpolation":"LINEAR",
					"output":109
				},
				{
					"input":13,
					"interpolation":"LINEAR",
					"output":110
				},
				{
					"input":13,
					"interpolation":"LINEAR",
					"output":111
				},
				{
					"input":15,
					"interpolation":"LINEAR",
					"output":112
				},
				{
					"input":13,
					"interpolation":"LINEAR",
					"output":113
				},
				{
					"input":13,
					"interpolation":"LINEAR",
					"output":114
				},
				{
					"input":15,
					"interpolation":"LINEAR",
					"output":115
				},
				{
					"input":13,
					"interpolation":"LINEAR",
					"output":116
				},
				{
					"input":13,
					"interpolation":"LINEAR",
					"output":117
				},
				{
					"input":15,
					"interpolation":"LINEAR",
					"output":118
				},
				{
					"input":13,
					"interpolation":"LINEAR",
					"output":119
				},
				{
					"input":13,
					"interpolation":"LINEAR",
					"output":120
				},
				{
					"input":15,
					"interpolation":"LINEAR",
					"output":121
				},
				{
					"input":13,
					"interpolation":"LINEAR",
					"output":122
				}
			]
		},
		{
			"channels":[
				{
					"sampler":0,
					"target":{
						"node":9,
						"path":"translation"
					}
				},
				{
					"sampler":1,
					"target":{
						"node":9,
						"path":"rotation"
					}
				},
				{
					"sampler":2,
					"target":{
						"node":9,
						"path":"scale"
					}
				},
				{
					"sampler":3,
					"target":{
						"node":8,
						"path":"translation"
					}
				},
				{
					"sampler":4,
					"target":{
						"node":8,
						"path":"rotation"
					}
				},
				{
					"sampler":5,
					"target":{
						"node":8,
						"path":"scale"
					}
				},
				{
					"sampler":6,
					"target":{
						"node":7,
						"path":"translation"
					}
				},
				{
					"sampler":7,
					"target":{
						"node":7,
						"path":"rotation"
					}
				},
				{
					"sampler":8,
					"target":{
						"node":7,
						"path":"scale"
					}
				},
				{
					"sampler":9,
					"target":{
						"node":0,
						"path":"translation"
					}
				},
				{
					"sampler":10,
					"target":{
						"node":0,
						"path":"rotation"
					}
				},
				{
					"sampler":11,
					"target":{
						"node":0,
						"path":"scale"
					}
				},
				{
					"sampler":12,
					"target":{
						"node":3,
						"path":"translation"
					}
				},
				{
					"sampler":13,
					"target":{
						"node":3,
						"path":"rotation"
					}
				},
				{
					"sampler":14,
					"target":{
						"node":3,
						"path":"scale"
					}
				},
				{
					"sampler":15,
					"target":{
						"node":2,
						"path":"translation"
					}
				},
				{
					"sampler":16,
					"target":{
						"node":2,
						"path":"rotation"
					}
				},
				{
					"sampler":17,
					"target":{
						"node":2,
						"path":"scale"
					}
				},
				{
					"sampler":18,
					"target":{
						"node":1,
						"path":"translation"
					}
				},
				{
					"sampler":19,
					"target":{
						"node":1,
						"path":"rotation"
					}
				},
				{
					"sampler":20,
					"target":{
						"node":1,
						"path":"scale"
					}
				},
				{
					"sampler":21,
					"target":{
						"node":6,
						"path":"translation"
					}
				},
				{
					"sampler":22,
					"target":{
						"node":6,
						"path":"rotation"
					}
				},
				{
					"sampler":23,
					"target":{
						"node":6,
						"path":"scale"
					}
				},
				{
					"sampler":24,
					"target":{
						"node":5,
						"path":"translation"
					}
				},
				{
					"sampler":25,
					"target":{
						"node":5,
						"path":"rotation"
					}
				},
				{
					"sampler":26,
					"target":{
						"node":5,
						"path":"scale"
					}
				},
				{
					"sampler":27,
					"target":{
						"node":4,
						"path":"translation"
					}
				},
				{
					"sampler":28,
					"target":{
						"node":4,
						"path":"rotation"
					}
				},
				{
					"sampler":29,
					"target":{
						"node":4,
						"path":"scale"
					}
				},
				{
					"sampler":30,
					"target":{
						"node":13,
						"path":"translation"
					}
				},
				{
					"sampler":31,
					"target":{
						"node":13,
						"path":"rotation"
					}
				},
				{
					"sampler":32,
					"target":{
						"node":13,
						"path":"scale"
					}
				},
				{
					"sampler":33,
					"target":{
						"node":12,
						"path":"translation"
					}
				},
				{
					"sampler":34,
					"target":{
						"node":12,
						"path":"rotation"
					}
				},
				{
					"sampler":35,
					"target":{
						"node":12,
						"path":"scale"
					}
				},
				{
					"sampler":36,
					"target":{
						"node":11,
						"path":"translation"
					}
				},
				{
					"sampler":37,
					"target":{
						"node":11,
						"path":"rotation"
					}
				},
				{
					"sampler":38,
					"target":{
						"node":11,
						"path":"scale"
					}
				},
				{
					"sampler":39,
					"target":{
						"node":10,
						"path":"translation"
					}
				},
				{
					"sampler":40,
					"target":{
						"node":10,
						"path":"rotation"
					}
				},
				{
					"sampler":41,
					"target":{
						"node":10,
						"path":"scale"
					}
				},
				{
					"sampler":42,
					"target":{
						"node":17,
						"path":"translation"
					}
				},
				{
					"sampler":43,
					"target":{
						"node":17,
						"path":"rotation"
					}
				},
				{
					"sampler":44,
					"target":{
						"node":17,
						"path":"scale"
					}
				},
				{
					"sampler":45,
					"target":{
						"node":16,
						"path":"translation"
					}
				},
				{
					"sampler":46,
					"target":{
						"node":16,
						"path":"rotation"
					}
				},
				{
					"sampler":47,
					"target":{
						"node":16,
						"path":"scale"
					}
				},
				{
					"sampler":48,
					"target":{
						"node":15,
						"path":"translation"
					}
				},
				{
					"sampler":49,
					"target":{
						"node":15,
						"path":"rotation"
					}
				},
				{
					"sampler":50,
					"target":{
						"node":15,
						"path":"scale"
					}
				},
				{
					"sampler":51,
					"target":{
						"node":14,
						"path":"translation"
					}
				},
				{
					"sampler":52,
					"target":{
						"node":14,
						"path":"rotation"
					}
				},
				{
					"sampler":53,
					"target":{
						"node":14,
						"path":"scale"
					}
				}
			],
			"name":"walk.001",
			"samplers":[
				{
					"input":15,
					"interpolation":"LINEAR",
					"output":123
				},
				{
					"input":15,
					"interpolation":"LINEAR",
					"output":124
				},
				{
					"input":13,
					"interpolation":"LINEAR",
					"output":125
				},
				{
					"input":13,
					"interpolation":"LINEAR",
					"output":126
				},
				{
					"input":15,
					"interpolation":"LINEAR",
					"output":127
				},
				{
					"input":13,
					"interpolation":"LINEAR",
					"output":128
				},
				{
					"input":13,
					"interpolation":"LINEAR",
					"output":129
				},
				{
					"input":15,
					"interpolation":"LINEAR",
					"output":130
				},
				{
					"input":13,
					"interpolation":"LINEAR",
					"output":131
				},
				{
					"input":13,
					"interpolation":"LINEAR",
					"output":132
				},
				{
					"input":15,
					"interpolation":"LINEAR",
					"output":133
				},
				{
					"input":13,
					"interpolation":"LINEAR",
					"output":134
				},
				{
					"input":13,
					"interpolation":"LINEAR",
					"output":135
				},
				{
					"input":15,
					"interpolation":"LINEAR",
					"output":136
				},
				{
					"input":13,
					"interpolation":"LINEAR",
					"output":137
				},
				{
					"input":13,
					"interpolation":"LINEAR",
					"output":138
				},
				{
					"input":15,
					"interpolation":"LINEAR",
					"output":139
				},
				{
					"input":13,
					"interpolation":"LINEAR",
					"output":140
				},
				{
					"input":13,
					"interpolation":"LINEAR",
					"output":141
				},
				{
					"input":15,
					"interpolation":"LINEAR",
					"output":142
				},
				{
					"input":13,
					"interpolation":"LINEAR",
					"output":143
				},
				{
					"input":13,
					"interpolation":"LINEAR",
					"output":144
				},
				{
					"input":15,
					"interpolation":"LINEAR",
					"output":145
				},
				{
					"input":13,
					"interpolation":"LINEAR",
					"output":146
				},
				{
					"input":13,
					"interpolation":"LINEAR",
					"output":147
				},
				{
					"input":15,
					"interpolation":"LINEAR",
					"output":148
				},
				{
					"input":13,
					"interpolation":"LINEAR",
					"output":149
				},
				{
					"input":13,
					"interpolation":"LINEAR",
					"output":150
				},
				{
					"input":15,
					"interpolation":"LINEAR",
					"output":151
				},
				{
					"input":13,
					"interpolation":"LINEAR",
					"output":152
				},
				{
					"input":13,
					"interpolation":"LINEAR",
					"output":153
				},
				{
					"input":15,
					"interpolation":"LINEAR",
					"output":154
				},
				{
					"input":13,
					"interpolation":"LINEAR",
					"output":155
				},
				{
					"input":13,
					"interpolation":"LINEAR",
					"output":156
				},
				{
					"input":15,
					"interpolation":"LINEAR",
					"output":157
				},
				{
					"input":13,
					"interpolation":"LINEAR",
					"output":158
				},
				{
					"input":13,
					"interpolation":"LINEAR",
					"output":159
				},
				{
					"input":15,
					"interpolation":"LINEAR",
					"output":160
				},
				{
					"input":13,
					"interpolation":"LINEAR",
					"output":161
				},
				{
					"input":13,
					"interpolation":"LINEAR",
					"output":162
				},
				{
					"input":15,
					"interpolation":"LINEAR",
					"output":163
				},
				{
					"input":13,
					"interpolation":"LINEAR",
					"output":164
				},
				{
					"input":13,
					"interpolation":"LINEAR",
					"output":165
				},
				{
					"input":15,
					"interpolation":"LINEAR",
					"output":166
				},
				{
					"input":13,
					"interpolation":"LINEAR",
					"output":167
				},
				{
					"input":13,
					"interpolation":"LINEAR",
					"output":168
				},
				{
					"input":15,
					"interpolation":"LINEAR",
					"output":169
				},
				{
					"input":13,
					"interpolation":"LINEAR",
					"output":170
				},
				{
					"input":13,
					"interpolation":"LINEAR",
					"output":171
				},
				{
					"input":15,
					"interpolation":"LINEAR",
					"output":172
				},
				{
					"input":13,
					"interpolation":"LINEAR",
					"output":173
				},
				{
					"input":13,
					"interpolation":"LINEAR",
					"output":174
				},
				{
					"input":15,
					"interpolation":"LINEAR",
					"output":175
				},
				{
					"input":13,
					"interpolation":"LINEAR",
					"output":176
				}
			]
		}
	],
	"materials":[
		{
			"doubleSided":true,
			"name":"Material",
			"pbrMetallicRoughness":{
				"baseColorTexture":{
					"index":0
				},
				"metallicFactor":0,
				"roughnessFactor":0.8809524178504944
			}
		}
	],
	"meshes":[
		{
			"name":"Cube.001",
			"primitives":[
				{
					"attributes":{
						"POSITION":0,
						"NORMAL":1,
						"TEXCOORD_0":2,
						"JOINTS_0":3,
						"WEIGHTS_0":4
					},
					"indices":5,
					"material":0
				}
			]
		},
		{
			"name":"Cube.002",
			"primitives":[
				{
					"attributes":{
						"POSITION":7,
						"NORMAL":8,
						"TEXCOORD_0":9,
						"JOINTS_0":10,
						"WEIGHTS_0":11
					},
					"indices":12,
					"material":0
				}
			]
		}
	],
	"textures":[
		{
			"sampler":0,
			"source":0
		}
	],
	"images":[
		{
			"mimeType":"image/png",
			"name":"noble",
			"uri":"noble-male.png"
		}
	],
	"skins":[
		{
			"inverseBindMatrices":6,
			"joints":[
				9,
				8,
				7,
				0,
				3,
				2,
				1,
				6,
				5,
				4,
				13,
				12,
				11,
				10,
				17,
				16,
				15,
				14
			],
			"name":"Armature"
		}
	],
	"accessors":[
		{
			"bufferView":0,
			"componentType":5126,
			"count":310,
			"max":[
				0.9799999594688416,
				1.952271819114685,
				0.24000000953674316
			],
			"min":[
				-0.9799999594688416,
				1.4901161193847656e-08,
				-0.15746170282363892
			],
			"type":"VEC3"
		},
		{
			"bufferView":1,
			"componentType":5126,
			"count":310,
			"type":"VEC3"
		},
		{
			"bufferView":2,
			"componentType":5126,
			"count":310,
			"type":"VEC2"
		},
		{
			"bufferView":3,
			"componentType":5121,
			"count":310,
			"type":"VEC4"
		},
		{
			"bufferView":4,
			"componentType":5126,
			"count":310,
			"type":"VEC4"
		},
		{
			"bufferView":5,
			"componentType":5123,
			"count":1440,
			"type":"SCALAR"
		},
		{
			"bufferView":6,
			"componentType":5126,
			"count":18,
			"type":"MAT4"
		},
		{
			"bufferView":7,
			"componentType":5126,
			"count":44,
			"max":[
				0.1843080073595047,
				1.9787273406982422,
				0.1746540516614914
			],
			"min":[
				-0.1843080073595047,
				1.61627197265625,
				-0.17743685841560364
			],
			"type":"VEC3"
		},
		{
			"bufferView":8,
			"componentType":5126,
			"count":44,
			"type":"VEC3"
		},
		{
			"bufferView":9,
			"componentType":5126,
			"count":44,
			"type":"VEC2"
		},
		{
			"bufferView":10,
			"componentType":5121,
			"count":44,
			"type":"VEC4"
		},
		{
			"bufferView":11,
			"componentType":5126,
			"count":44,
			"type":"VEC4"
		},
		{
			"bufferView":12,
			"componentType":5123,
			"count":192,
			"type":"SCALAR"
		},
		{
			"bufferView":13,
			"componentType":5126,
			"count":2,
			"max":[
				1
			],
			"min":[
				0
			],
			"type":"SCALAR"
		},
		{
			"bufferView":14,
			"componentType":5126,
			"count":2,
			"type":"VEC3"
		},
		{
			"bufferView":15,
			"componentType":5126,
			"count":25,
			"max":[
				1
			],
			"min":[
				0
			],
			"type":"SCALAR"
		},
		{
			"bufferView":16,
			"componentType":5126,
			"count":25,
			"type":"VEC4"
		},
		{
			"bufferView":17,
			"componentType":5126,
			"count":2,
			"type":"VEC3"
		},
		{
			"bufferView":18,
			"componentType":5126,
			"count":2,
			"type":"VEC3"
		},
		{
			"bufferView":19,
			"componentType":5126,
			"count":2,
			"type":"VEC4"
		},
		{
			"bufferView":20,
			"componentType":5126,
			"count":2,
			"type":"VEC3"
		},
		{
			"bufferView":21,
			"componentType":5126,
			"count":2,
			"type":"VEC3"
		},
		{
			"bufferView":22,
			"componentType":5126,
			"count":2,
			"type":"VEC4"
		},
		{
			"bufferView":23,
			"componentType":5126,
			"count":2,
			"type":"VEC3"
		},
		{
			"bufferView":24,
			"componentType":5126,
			"count":2,
			"type":"VEC3"
		},
		{
			"bufferView":25,
			"componentType":5126,
			"count":25,
			"type":"VEC4"
		},
		{
			"bufferView":26,
			"componentType":5126,
			"count":2,
			"type":"VEC3"
		},
		{
			"bufferView":27,
			"componentType":5126,
			"count":2,
			"type":"VEC3"
		},
		{
			"bufferView":28,
			"componentType":5126,
			"count":2,
			"type":"VEC4"
		},
		{
			"bufferView":29,
			"componentType":5126,
			"count":2,
			"type":"VEC3"
		},
		{
			"bufferView":30,
			"componentType":5126,
			"count":2,
			"type":"VEC3"
		},
		{
			"bufferView":31,
			"componentType":5126,
			"count":25,
			"type":"VEC4"
		},
		{
			"bufferView":32,
			"componentType":5126,
			"count":2,
			"type":"VEC3"
		},
		{
			"bufferView":33,
			"componentType":5126,
			"count":2,
			"type":"VEC3"
		},
		{
			"bufferView":34,
			"componentType":5126,
			"count":2,
			"type":"VEC4"
		},
		{
			"bufferView":35,
			"componentType":5126,
			"count":2,
			"type":"VEC3"
		},
		{
			"bufferView":36,
			"componentType":5126,
			"count":2,
			"type":"VEC3"
		},
		{
			"bufferView":37,
			"componentType":5126,
			"count":2,
			"type":"VEC4"
		},
		{
			"bufferView":38,
			"componentType":5126,
			"count":2,
			"type":"VEC3"
		},
		{
			"bufferView":39,
			"componentType":5126,
			"count":2,
			"type":"VEC3"
		},
		{
			"bufferView":40,
			"componentType":5126,
			"count":25,
			"type":"VEC4"
		},
		{
			"bufferView":41,
			"componentType":5126,
			"count":2,
			"type":"VEC3"
		},
		{
			"bufferView":42,
			"componentType":5126,
			"count":2,
			"type":"VEC3"
		},
		{
			"bufferView":43,
			"componentType":5126,
			"count":2,
			"type":"VEC4"
		},
		{
			"bufferView":44,
			"componentType":5126,
			"count":2,
			"type":"VEC3"
		},
		{
			"bufferView":45,
			"componentType":5126,
			"count":2,
			"type":"VEC3"
		},
		{
			"bufferView":46,
			"componentType":5126,
			"count":2,
			"type":"VEC4"
		},
		{
			"bufferView":47,
			"componentType":5126,
			"count":2,
			"type":"VEC3"
		},
		{
			"bufferView":48,
			"componentType":5126,
			"count":2,
			"type":"VEC3"
		},
		{
			"bufferView":49,
			"componentType":5126,
			"count":2,
			"type":"VEC4"
		},
		{
			"bufferView":50,
			"componentType":5126,
			"count":2,
			"type":"VEC3"
		},
		{
			"bufferView":51,
			"componentType":5126,
			"count":2,
			"type":"VEC3"
		},
		{
			"bufferView":52,
			"componentType":5126,
			"count":2,
			"type":"VEC4"
		},
		{
			"bufferView":53,
			"componentType":5126,
			"count":2,
			"type":"VEC3"
		},
		{
			"bufferView":54,
			"componentType":5126,
			"count":2,
			"type":"VEC3"
		},
		{
			"bufferView":55,
			"componentType":5126,
			"count":2,
			"type":"VEC4"
		},
		{
			"bufferView":56,
			"componentType":5126,
			"count":2,
			"type":"VEC3"
		},
		{
			"bufferView":57,
			"componentType":5126,
			"count":2,
			"type":"VEC3"
		},
		{
			"bufferView":58,
			"componentType":5126,
			"count":2,
			"type":"VEC4"
		},
		{
			"bufferView":59,
			"componentType":5126,
			"count":2,
			"type":"VEC3"
		},
		{
			"bufferView":60,
			"componentType":5126,
			"count":2,
			"type":"VEC3"
		},
		{
			"bufferView":61,
			"componentType":5126,
			"count":2,
			"type":"VEC4"
		},
		{
			"bufferView":62,
			"componentType":5126,
			"count":2,
			"type":"VEC3"
		},
		{
			"bufferView":63,
			"componentType":5126,
			"count":2,
			"type":"VEC3"
		},
		{
			"bufferView":64,
			"componentType":5126,
			"count":2,
			"type":"VEC4"
		},
		{
			"bufferView":65,
			"componentType":5126,
			"count":2,
			"type":"VEC3"
		},
		{
			"bufferView":66,
			"componentType":5126,
			"count":2,
			"type":"VEC3"
		},
		{
			"bufferView":67,
			"componentType":5126,
			"count":2,
			"type":"VEC4"
		},
		{
			"bufferView":68,
			"componentType":5126,
			"count":2,
			"type":"VEC3"
		},
		{
			"bufferView":69,
			"componentType":5126,
			"count":25,
			"type":"VEC3"
		},
		{
			"bufferView":70,
			"componentType":5126,
			"count":25,
			"type":"VEC4"
		},
		{
			"bufferView":71,
			"componentType":5126,
			"count":2,
			"type":"VEC3"
		},
		{
			"bufferView":72,
			"componentType":5126,
			"count":2,
			"type":"VEC3"
		},
		{
			"bufferView":73,
			"componentType":5126,
			"count":25,
			"type":"VEC4"
		},
		{
			"bufferView":74,
			"componentType":5126,
			"count":2,
			"type":"VEC3"
		},
		{
			"bufferView":75,
			"componentType":5126,
			"count":2,
			"type":"VEC3"
		},
		{
			"bufferView":76,
			"componentType":5126,
			"count":25,
			"type":"VEC4"
		},
		{
			"bufferView":77,
			"componentType":5126,
			"count":2,
			"type":"VEC3"
		},
		{
			"bufferView":78,
			"componentType":5126,
			"count":2,
			"type":"VEC3"
		},
		{
			"bufferView":79,
			"componentType":5126,
			"count":25,
			"type":"VEC4"
		},
		{
			"bufferView":80,
			"componentType":5126,
			"count":2,
			"type":"VEC3"
		},
		{
			"bufferView":81,
			"componentType":5126,
			"count":2,
			"type":"VEC3"
		},
		{
			"bufferView":82,
			"componentType":5126,
			"count":25,
			"type":"VEC4"
		},
		{
			"bufferView":83,
			"componentType":5126,
			"count":2,
			"type":"VEC3"
		},
		{
			"bufferView":84,
			"componentType":5126,
			"count":2,
			"type":"VEC3"
		},
		{
			"bufferView":85,
			"componentType":5126,
			"count":25,
			"type":"VEC4"
		},
		{
			"bufferView":86,
			"componentType":5126,
			"count":2,
			"type":"VEC3"
		},
		{
			"bufferView":87,
			"componentType":5126,
			"count":2,
			"type":"VEC3"
		},
		{
			"bufferView":88,
			"componentType":5126,
			"count":25,
			"type":"VEC4"
		},
		{
			"bufferView":89,
			"componentType":5126,
			"count":2,
			"type":"VEC3"
		},
		{
			"bufferView":90,
			"componentType":5126,
			"count":2,
			"type":"VEC3"
		},
		{
			"bufferView":91,
			"componentType":5126,
			"count":25,
			"type":"VEC4"
		},
		{
			"bufferView":92,
			"componentType":5126,
			"count":2,
			"type":"VEC3"
		},
		{
			"bufferView":93,
			"componentType":5126,
			"count":2,
			"type":"VEC3"
		},
		{
			"bufferView":94,
			"componentType":5126,
			"count":25,
			"type":"VEC4"
		},
		{
			"bufferView":95,
			"componentType":5126,
			"count":2,
			"type":"VEC3"
		},
		{
			"bufferView":96,
			"componentType":5126,
			"count":2,
			"type":"VEC3"
		},
		{
			"bufferView":97,
			"componentType":5126,
			"count":25,
			"type":"VEC4"
		},
		{
			"bufferView":98,
			"componentType":5126,
			"count":2,
			"type":"VEC3"
		},
		{
			"bufferView":99,
			"componentType":5126,
			"count":2,
			"type":"VEC3"
		},
		{
			"bufferView":100,
			"componentType":5126,
			"count":25,
			"type":"VEC4"
		},
		{
			"bufferView":101,
			"componentType":5126,
			"count":2,
			"type":"VEC3"
		},
		{
			"bufferView":102,
			"componentType":5126,
			"count":2,
			"type":"VEC3"
		},
		{
			"bufferView":103,
			"componentType":5126,
			"count":25,
			"type":"VEC4"
		},
		{
			"bufferView":104,
			"componentType":5126,
			"count":2,
			"type":"VEC3"
		},
		{
			"bufferView":105,
			"componentType":5126,
			"count":2,
			"type":"VEC3"
		},
		{
			"bufferView":106,
			"componentType":5126,
			"count":25,
			"type":"VEC4"
		},
		{
			"bufferView":107,
			"componentType":5126,
			"count":2,
			"type":"VEC3"
		},
		{
			"bufferView":108,
			"componentType":5126,
			"count":2,
			"type":"VEC3"
		},
		{
			"bufferView":109,
			"componentType":5126,
			"count":25,
			"type":"VEC4"
		},
		{
			"bufferView":110,
			"componentType":5126,
			"count":2,
			"type":"VEC3"
		},
		{
			"bufferView":111,
			"componentType":5126,
			"count":2,
			"type":"VEC3"
		},
		{
			"bufferView":112,
			"componentType":5126,
			"count":25,
			"type":"VEC4"
		},
		{
			"bufferView":113,
			"componentType":5126,
			"count":2,
			"type":"VEC3"
		},
		{
			"bufferView":114,
			"componentType":5126,
			"count":2,
			"type":"VEC3"
		},
		{
			"bufferView":115,
			"componentType":5126,
			"count":25,
			"type":"VEC4"
		},
		{
			"bufferView":116,
			"componentType":5126,
			"count":2,
			"type":"VEC3"
		},
		{
			"bufferView":117,
			"componentType":5126,
			"count":2,
			"type":"VEC3"
		},
		{
			"bufferView":118,
			"componentType":5126,
			"count":25,
			"type":"VEC4"
		},
		{
			"bufferView":119,
			"componentType":5126,
			"count":2,
			"type":"VEC3"
		},
		{
			"bufferView":120,
			"componentType":5126,
			"count":2,
			"type":"VEC3"
		},
		{
			"bufferView":121,
			"componentType":5126,
			"count":25,
			"type":"VEC4"
		},
		{
			"bufferView":122,
			"componentType":5126,
			"count":2,
			"type":"VEC3"
		},
		{
			"bufferView":123,
			"componentType":5126,
			"count":25,
			"type":"VEC3"
		},
		{
			"bufferView":124,
			"componentType":5126,
			"count":25,
			"type":"VEC4"
		},
		{
			"bufferView":125,
			"componentType":5126,
			"count":2,
			"type":"VEC3"
		},
		{
			"bufferView":126,
			"componentType":5126,
			"count":2,
			"type":"VEC3"
		},
		{
			"bufferView":127,
			"componentType":5126,
			"count":25,
			"type":"VEC4"
		},
		{
			"bufferView":128,
			"componentType":5126,
			"count":2,
			"type":"VEC3"
		},
		{
			"bufferView":129,
			"componentType":5126,
			"count":2,
			"type":"VEC3"
		},
		{
			"bufferView":130,
			"componentType":5126,
			"count":25,
			"type":"VEC4"
		},
		{
			"bufferView":131,
			"componentType":5126,
			"count":2,
			"type":"VEC3"
		},
		{
			"bufferView":132,
			"componentType":5126,
			"count":2,
			"type":"VEC3"
		},
		{
			"bufferView":133,
			"componentType":5126,
			"count":25,
			"type":"VEC4"
		},
		{
			"bufferView":134,
			"componentType":5126,
			"count":2,
			"type":"VEC3"
		},
		{
			"bufferView":135,
			"componentType":5126,
			"count":2,
			"type":"VEC3"
		},
		{
			"bufferView":136,
			"componentType":5126,
			"count":25,
			"type":"VEC4"
		},
		{
			"bufferView":137,
			"componentType":5126,
			"count":2,
			"type":"VEC3"
		},
		{
			"bufferView":138,
			"componentType":5126,
			"count":2,
			"type":"VEC3"
		},
		{
			"bufferView":139,
			"componentType":5126,
			"count":25,
			"type":"VEC4"
		},
		{
			"bufferView":140,
			"componentType":5126,
			"count":2,
			"type":"VEC3"
		},
		{
			"bufferView":141,
			"componentType":5126,
			"count":2,
			"type":"VEC3"
		},
		{
			"bufferView":142,
			"componentType":5126,
			"count":25,
			"type":"VEC4"
		},
		{
			"bufferView":143,
			"componentType":5126,
			"count":2,
			"type":"VEC3"
		},
		{
			"bufferView":144,
			"componentType":5126,
			"count":2,
			"type":"VEC3"
		},
		{
			"bufferView":145,
			"componentType":5126,
			"count":25,
			"type":"VEC4"
		},
		{
			"bufferView":146,
			"componentType":5126,
			"count":2,
			"type":"VEC3"
		},
		{
			"bufferView":147,
			"componentType":5126,
			"count":2,
			"type":"VEC3"
		},
		{
			"bufferView":148,
			"componentType":5126,
			"count":25,
			"type":"VEC4"
		},
		{
			"bufferView":149,
			"componentType":5126,
			"count":2,
			"type":"VEC3"
		},
		{
			"bufferView":150,
			"componentType":5126,
			"count":2,
			"type":"VEC3"
		},
		{
			"bufferView":151,
			"componentType":5126,
			"count":25,
			"type":"VEC4"
		},
		{
			"bufferView":152,
			"componentType":5126,
			"count":2,
			"type":"VEC3"
		},
		{
			"bufferView":153,
			"componentType":5126,
			"count":2,
			"type":"VEC3"
		},
		{
			"bufferView":154,
			"componentType":5126,
			"count":25,
			"type":"VEC4"
		},
		{
			"bufferView":155,
			"componentType":5126,
			"count":2,
			"type":"VEC3"
		},
		{
			"bufferView":156,
			"componentType":5126,
			"count":2,
			"type":"VEC3"
		},
		{
			"bufferView":157,
			"componentType":5126,
			"count":25,
			"type":"VEC4"
		},
		{
			"bufferView":158,
			"componentType":5126,
			"count":2,
			"type":"VEC3"
		},
		{
			"bufferView":159,
			"componentType":5126,
			"count":2,
			"type":"VEC3"
		},
		{
			"bufferView":160,
			"componentType":5126,
			"count":25,
			"type":"VEC4"
		},
		{
			"bufferView":161,
			"componentType":5126,
			"count":2,
			"type":"VEC3"
		},
		{
			"bufferView":162,
			"componentType":5126,
			"count":2,
			"type":"VEC3"
		},
		{
			"bufferView":163,
			"componentType":5126,
			"count":25,
			"type":"VEC4"
		},
		{
			"bufferView":164,
			"componentType":5126,
			"count":2,
			"type":"VEC3"
		},
		{
			"bufferView":165,
			"componentType":5126,
			"count":2,
			"type":"VEC3"
		},
		{
			"bufferView":166,
			"componentType":5126,
			"count":25,
			"type":"VEC4"
		},
		{
			"bufferView":167,
			"componentType":5126,
			"count":2,
			"type":"VEC3"
		},
		{
			"bufferView":168,
			"componentType":5126,
			"count":2,
			"type":"VEC3"
		},
		{
			"bufferView":169,
			"componentType":5126,
			"count":25,
			"type":"VEC4"
		},
		{
			"bufferView":170,
			"componentType":5126,
			"count":2,
			"type":"VEC3"
		},
		{
			"bufferView":171,
			"componentType":5126,
			"count":2,
			"type":"VEC3"
		},
		{
			"bufferView":172,
			"componentType":5126,
			"count":25,
			"type":"VEC4"
		},
		{
			"bufferView":173,
			"componentType":5126,
			"count":2,
			"type":"VEC3"
		},
		{
			"bufferView":174,
			"componentType":5126,
			"count":2,
			"type":"VEC3"
		},
		{
			"bufferView":175,
			"componentType":5126,
			"count":25,
			"type":"VEC4"
		},
		{
			"bufferView":176,
			"componentType":5126,
			"count":2,
			"type":"VEC3"
		}
	],
	"bufferViews":[
		{
			"buffer":0,
			"byteLength":3720,
			"byteOffset":0,
			"target":34962
		},
		{
			"buffer":0,
			"byteLength":3720,
			"byteOffset":3720,
			"target":34962
		},
		{
			"buffer":0,
			"byteLength":2480,
			"byteOffset":7440,
			"target":34962
		},
		{
			"buffer":0,
			"byteLength":1240,
			"byteOffset":9920,
			"target":34962
		},
		{
			"buffer":0,
			"byteLength":4960,
			"byteOffset":11160,
			"target":34962
		},
		{
			"buffer":0,
			"byteLength":2880,
			"byteOffset":16120,
			"target":34963
		},
		{
			"buffer":0,
			"byteLength":1152,
			"byteOffset":19000
		},
		{
			"buffer":0,
			"byteLength":528,
			"byteOffset":20152,
			"target":34962
		},
		{
			"buffer":0,
			"byteLength":528,
			"byteOffset":20680,
			"target":34962
		},
		{
			"buffer":0,
			"byteLength":352,
			"byteOffset":21208,
			"target":34962
		},
		{
			"buffer":0,
			"byteLength":176,
			"byteOffset":21560,
			"target":34962
		},
		{
			"buffer":0,
			"byteLength":704,
			"byteOffset":21736,
			"target":34962
		},
		{
			"buffer":0,
			"byteLength":384,
			"byteOffset":22440,
			"target":34963
		},
		{
			"buffer":0,
			"byteLength":8,
			"byteOffset":22824
		},
		{
			"buffer":0,
			"byteLength":24,
			"byteOffset":22832
		},
		{
			"buffer":0,
			"byteLength":100,
			"byteOffset":22856
		},
		{
			"buffer":0,
			"byteLength":400,
			"byteOffset":22956
		},
		{
			"buffer":0,
			"byteLength":24,
			"byteOffset":23356
		},
		{
			"buffer":0,
			"byteLength":24,
			"byteOffset":23380
		},
		{
			"buffer":0,
			"byteLength":32,
			"byteOffset":23404
		},
		{
			"buffer":0,
			"byteLength":24,
			"byteOffset":23436
		},
		{
			"buffer":0,
			"byteLength":24,
			"byteOffset":23460
		},
		{
			"buffer":0,
			"byteLength":32,
			"byteOffset":23484
		},
		{
			"buffer":0,
			"byteLength":24,
			"byteOffset":23516
		},
		{
			"buffer":0,
			"byteLength":24,
			"byteOffset":23540
		},
		{
			"buffer":0,
			"byteLength":400,
			"byteOffset":23564
		},
		{
			"buffer":0,
			"byteLength":24,
			"byteOffset":23964
		},
		{
			"buffer":0,
			"byteLength":24,
			"byteOffset":23988
		},
		{
			"buffer":0,
			"byteLength":32,
			"byteOffset":24012
		},
		{
			"buffer":0,
			"byteLength":24,
			"byteOffset":24044
		},
		{
			"buffer":0,
			"byteLength":24,
			"byteOffset":24068
		},
		{
			"buffer":0,
			"byteLength":400,
			"byteOffset":24092
		},
		{
			"buffer":0,
			"byteLength":24,
			"byteOffset":24492
		},
		{
			"buffer":0,
			"byteLength":24,
			"byteOffset":24516
		},
		{
			"buffer":0,
			"byteLength":32,
			"byteOffset":24540
		},
		{
			"buffer":0,
			"byteLength":24,
			"byteOffset":24572
		},
		{
			"buffer":0,
			"byteLength":24,
			"byteOffset":24596
		},
		{
			"buffer":0,
			"byteLength":32,
			"byteOffset":24620
		},
		{
			"buffer":0,
			"byteLength":24,
			"byteOffset":24652
		},
		{
			"buffer":0,
			"byteLength":24,
			"byteOffset":24676
		},
		{
			"buffer":0,
			"byteLength":400,
			"byteOffset":24700
		},
		{
			"buffer":0,
			"byteLength":24,
			"byteOffset":25100
		},
		{
			"buffer":0,
			"byteLength":24,
			"byteOffset":25124
		},
		{
			"buffer":0,
			"byteLength":32,
			"byteOffset":25148
		},
		{
			"buffer":0,
			"byteLength":24,
			"byteOffset":25180
		},
		{
			"buffer":0,
			"byteLength":24,
			"byteOffset":25204
		},
		{
			"buffer":0,
			"byteLength":32,
			"byteOffset":25228
		},
		{
			"buffer":0,
			"byteLength":24,
			"byteOffset":25260
		},
		{
			"buffer":0,
			"byteLength":24,
			"byteOffset":25284
		},
		{
			"buffer":0,
			"byteLength":32,
			"byteOffset":25308
		},
		{
			"buffer":0,
			"byteLength":24,
			"byteOffset":25340
		},
		{
			"buffer":0,
			"byteLength":24,
			"byteOffset":25364
		},
		{
			"buffer":0,
			"byteLength":32,
			"byteOffset":25388
		},
		{
			"buffer":0,
			"byteLength":24,
			"byteOffset":25420
		},
		{
			"buffer":0,
			"byteLength":24,
			"byteOffset":25444
		},
		{
			"buffer":0,
			"byteLength":32,
			"byteOffset":25468
		},
		{
			"buffer":0,
			"byteLength":24,
			"byteOffset":25500
		},
		{
			"buffer":0,
			"byteLength":24,
			"byteOffset":25524
		},
		{
			"buffer":0,
			"byteLength":32,
			"byteOffset":25548
		},
		{
			"buffer":0,
			"byteLength":24,
			"byteOffset":25580
		},
		{
			"buffer":0,
			"byteLength":24,
			"byteOffset":25604
		},
		{
			"buffer":0,
			"byteLength":32,
			"byteOffset":25628
		},
		{
			"buffer":0,
			"byteLength":24,
			"byteOffset":25660
		},
		{
			"buffer":0,
			"byteLength":24,
			"byteOffset":25684
		},
		{
			"buffer":0,
			"byteLength":32,
			"byteOffset":25708
		},
		{
			"buffer":0,
			"byteLength":24,
			"byteOffset":25740
		},
		{
			"buffer":0,
			"byteLength":24,
			"byteOffset":25764
		},
		{
			"buffer":0,
			"byteLength":32,
			"byteOffset":25788
		},
		{
			"buffer":0,
			"byteLength":24,
			"byteOffset":25820
		},
		{
			"buffer":0,
			"byteLength":300,
			"byteOffset":25844
		},
		{
			"buffer":0,
			"byteLength":400,
			"byteOffset":26144
		},
		{
			"buffer":0,
			"byteLength":24,
			"byteOffset":26544
		},
		{
			"buffer":0,
			"byteLength":24,
			"byteOffset":26568
		},
		{
			"buffer":0,
			"byteLength":400,
			"byteOffset":26592
		},
		{
			"buffer":0,
			"byteLength":24,
			"byteOffset":26992
		},
		{
			"buffer":0,
			"byteLength":24,
			"byteOffset":27016
		},
		{
			"buffer":0,
			"byteLength":400,
			"byteOffset":27040
		},
		{
			"buffer":0,
			"byteLength":24,
			"byteOffset":27440
		},
		{
			"buffer":0,
			"byteLength":24,
			"byteOffset":27464
		},
		{
			"buffer":0,
			"byteLength":400,
			"byteOffset":27488
		},
		{
			"buffer":0,
			"byteLength":24,
			"byteOffset":27888
		},
		{
			"buffer":0,
			"byteLength":24,
			"byteOffset":27912
		},
		{
			"buffer":0,
			"byteLength":400,
			"byteOffset":27936
		},
		{
			"buffer":0,
			"byteLength":24,
			"byteOffset":28336
		},
		{
			"buffer":0,
			"byteLength":24,
			"byteOffset":28360
		},
		{
			"buffer":0,
			"byteLength":400,
			"byteOffset":28384
		},
		{
			"buffer":0,
			"byteLength":24,
			"byteOffset":28784
		},
		{
			"buffer":0,
			"byteLength":24,
			"byteOffset":28808
		},
		{
			"buffer":0,
			"byteLength":400,
			"byteOffset":28832
		},
		{
			"buffer":0,
			"byteLength":24,
			"byteOffset":29232
		},
		{
			"buffer":0,
			"byteLength":24,
			"byteOffset":29256
		},
		{
			"buffer":0,
			"byteLength":400,
			"byteOffset":29280
		},
		{
			"buffer":0,
			"byteLength":24,
			"byteOffset":29680
		},
		{
			"buffer":0,
			"byteLength":24,
			"byteOffset":29704
		},
		{
			"buffer":0,
			"byteLength":400,
			"byteOffset":29728
		},
		{
			"buffer":0,
			"byteLength":24,
			"byteOffset":30128
		},
		{
			"buffer":0,
			"byteLength":24,
			"byteOffset":30152
		},
		{
			"buffer":0,
			"byteLength":400,
			"byteOffset":30176
		},
		{
			"buffer":0,
			"byteLength":24,
			"byteOffset":30576
		},
		{
			"buffer":0,
			"byteLength":24,
			"byteOffset":30600
		},
		{
			"buffer":0,
			"byteLength":400,
			"byteOffset":30624
		},
		{
			"buffer":0,
			"byteLength":24,
			"byteOffset":31024
		},
		{
			"buffer":0,
			"byteLength":24,
			"byteOffset":31048
		},
		{
			"buffer":0,
			"byteLength":400,
			"byteOffset":31072
		},
		{
			"buffer":0,
			"byteLength":24,
			"byteOffset":31472
		},
		{
			"buffer":0,
			"byteLength":24,
			"byteOffset":31496
		},
		{
			"buffer":0,
			"byteLength":400,
			"byteOffset":31520
		},
		{
			"buffer":0,
			"byteLength":24,
			"byteOffset":31920
		},
		{
			"buffer":0,
			"byteLength":24,
			"byteOffset":31944
		},
		{
			"buffer":0,
			"byteLength":400,
			"byteOffset":31968
		},
		{
			"buffer":0,
			"byteLength":24,
			"byteOffset":32368
		},
		{
			"buffer":0,
			"byteLength":24,
			"byteOffset":32392
		},
		{
			"buffer":0,
			"byteLength":400,
			"byteOffset":32416
		},
		{
			"buffer":0,
			"byteLength":24,
			"byteOffset":32816
		},
		{
			"buffer":0,
			"byteLength":24,
			"byteOffset":32840
		},
		{
			"buffer":0,
			"byteLength":400,
			"byteOffset":32864
		},
		{
			"buffer":0,
			"byteLength":24,
			"byteOffset":33264
		},
		{
			"buffer":0,
			"byteLength":24,
			"byteOffset":33288
		},
		{
			"buffer":0,
			"byteLength":400,
			"byteOffset":33312
		},
		{
			"buffer":0,
			"byteLength":24,
			"byteOffset":33712
		},
		{
			"buffer":0,
			"byteLength":24,
			"byteOffset":33736
		},
		{
			"buffer":0,
			"byteLength":400,
			"byteOffset":33760
		},
		{
			"buffer":0,
			"byteLength":24,
			"byteOffset":34160
		},
		{
			"buffer":0,
			"byteLength":300,
			"byteOffset":34184
		},
		{
			"buffer":0,
			"byteLength":400,
			"byteOffset":34484
		},
		{
			"buffer":0,
			"byteLength":24,
			"byteOffset":34884
		},
		{
			"buffer":0,
			"byteLength":24,
			"byteOffset":34908
		},
		{
			"buffer":0,
			"byteLength":400,
			"byteOffset":34932
		},
		{
			"buffer":0,
			"byteLength":24,
			"byteOffset":35332
		},
		{
			"buffer":0,
			"byteLength":24,
			"byteOffset":35356
		},
		{
			"buffer":0,
			"byteLength":400,
			"byteOffset":35380
		},
		{
			"buffer":0,
			"byteLength":24,
			"byteOffset":35780
		},
		{
			"buffer":0,
			"byteLength":24,
			"byteOffset":35804
		},
		{
			"buffer":0,
			"byteLength":400,
			"byteOffset":35828
		},
		{
			"buffer":0,
			"byteLength":24,
			"byteOffset":36228
		},
		{
			"buffer":0,
			"byteLength":24,
			"byteOffset":36252
		},
		{
			"buffer":0,
			"byteLength":400,
			"byteOffset":36276
		},
		{
			"buffer":0,
			"byteLength":24,
			"byteOffset":36676
		},
		{
			"buffer":0,
			"byteLength":24,
			"byteOffset":36700
		},
		{
			"buffer":0,
			"byteLength":400,
			"byteOffset":36724
		},
		{
			"buffer":0,
			"byteLength":24,
			"byteOffset":37124
		},
		{
			"buffer":0,
			"byteLength":24,
			"byteOffset":37148
		},
		{
			"buffer":0,
			"byteLength":400,
			"byteOffset":37172
		},
		{
			"buffer":0,
			"byteLength":24,
			"byteOffset":37572
		},
		{
			"buffer":0,
			"byteLength":24,
			"byteOffset":37596
		},
		{
			"buffer":0,
			"byteLength":400,
			"byteOffset":37620
		},
		{
			"buffer":0,
			"byteLength":24,
			"byteOffset":38020
		},
		{
			"buffer":0,
			"byteLength":24,
			"byteOffset":38044
		},
		{
			"buffer":0,
			"byteLength":400,
			"byteOffset":38068
		},
		{
			"buffer":0,
			"byteLength":24,
			"byteOffset":38468
		},
		{
			"buffer":0,
			"byteLength":24,
			"byteOffset":38492
		},
		{
			"buffer":0,
			"byteLength":400,
			"byteOffset":38516
		},
		{
			"buffer":0,
			"byteLength":24,
			"byteOffset":38916
		},
		{
			"buffer":0,
			"byteLength":24,
			"byteOffset":38940
		},
		{
			"buffer":0,
			"byteLength":400,
			"byteOffset":38964
		},
		{
			"buffer":0,
			"byteLength":24,
			"byteOffset":39364
		},
		{
			"buffer":0,
			"byteLength":24,
			"byteOffset":39388
		},
		{
			"buffer":0,
			"byteLength":400,
			"byteOffset":39412
		},
		{
			"buffer":0,
			"byteLength":24,
			"byteOffset":39812
		},
		{
			"buffer":0,
			"byteLength":24,
			"byteOffset":39836
		},
		{
			"buffer":0,
			"byteLength":400,
			"byteOffset":39860
		},
		{
			"buffer":0,
			"byteLength":24,
			"byteOffset":40260
		},
		{
			"buffer":0,
			"byteLength":24,
			"byteOffset":40284
		},
		{
			"buffer":0,
			"byteLength":400,
			"byteOffset":40308
		},
		{
			"buffer":0,
			"byteLength":24,
			"byteOffset":40708
		},
		{
			"buffer":0,
			"byteLength":24,
			"byteOffset":40732
		},
		{
			"buffer":0,
			"byteLength":400,
			"byteOffset":40756
		},
		{
			"buffer":0,
			"byteLength":24,
			"byteOffset":41156
		},
		{
			"buffer":0,
			"byteLength":24,
			"byteOffset":41180
		},
		{
			"buffer":0,
			"byteLength":400,
			"byteOffset":41204
		},
		{
			"buffer":0,
			"byteLength":24,
			"byteOffset":41604
		},
		{
			"buffer":0,
			"byteLength":24,
			"byteOffset":41628
		},
		{
			"buffer":0,
			"byteLength":400,
			"byteOffset":41652
		},
		{
			"buffer":0,
			"byteLength":24,
			"byteOffset":42052
		},
		{
			"buffer":0,
			"byteLength":24,
			"byteOffset":42076
		},
		{
			"buffer":0,
			"byteLength":400,
			"byteOffset":42100
		},
		{
			"buffer":0,
			"byteLength":24,
			"byteOffset":42500
		}
	],
	"samplers":[
		{
			"magFilter":9729,
			"minFilter":9987
		}
	],
	"buffers":[
		{
			"byteLength":42524,
			"uri":"noble-male.bin"
		}
	]
}
