{
	"asset":{
		"generator":"Khronos glTF Blender I/O v4.3.47",
		"version":"2.0"
	},
	"scene":0,
	"scenes":[
		{
			"name":"Scene",
			"nodes":[
				2
			]
		}
	],
	"nodes":[
		{
			"name":"rotor",
			"rotation":[
				-0.7071067690849304,
				0,
				0,
				0.7071067690849304
			]
		},
		{
			"mesh":0,
			"name":"830-gear",
			"skin":0
		},
		{
			"children":[
				1,
				0
			],
			"name":"Armature"
		}
	],
	"animations":[
		{
			"channels":[
				{
					"sampler":0,
					"target":{
						"node":0,
						"path":"translation"
					}
				},
				{
					"sampler":1,
					"target":{
						"node":0,
						"path":"rotation"
					}
				},
				{
					"sampler":2,
					"target":{
						"node":0,
						"path":"scale"
					}
				}
			],
			"name":"idle",
			"samplers":[
				{
					"input":7,
					"interpolation":"LINEAR",
					"output":8
				},
				{
					"input":9,
					"interpolation":"LINEAR",
					"output":10
				},
				{
					"input":7,
					"interpolation":"LINEAR",
					"output":11
				}
			]
		}
	],
	"materials":[
		{
			"doubleSided":true,
			"name":"Material.001",
			"pbrMetallicRoughness":{
				"baseColorTexture":{
					"index":0
				},
				"metallicFactor":0,
				"roughnessFactor":0.5
			}
		}
	],
	"meshes":[
		{
			"name":"Cylinder.001",
			"primitives":[
				{
					"attributes":{
						"POSITION":0,
						"NORMAL":1,
						"TEXCOORD_0":2,
						"JOINTS_0":3,
						"WEIGHTS_0":4
					},
					"indices":5,
					"material":0
				}
			]
		}
	],
	"textures":[
		{
			"sampler":0,
			"source":0
		}
	],
	"images":[
		{
			"mimeType":"image/png",
			"name":"palette",
			"uri":"palette.png"
		}
	],
	"skins":[
		{
			"inverseBindMatrices":6,
			"joints":[
				0
			],
			"name":"Armature"
		}
	],
	"accessors":[
		{
			"bufferView":0,
			"componentType":5126,
			"count":1597,
			"max":[
				0.5781559348106384,
				0.46935462951660156,
				0.574999988079071
			],
			"min":[
				-0.574999988079071,
				0,
				-0.5750929713249207
			],
			"type":"VEC3"
		},
		{
			"bufferView":1,
			"componentType":5126,
			"count":1597,
			"type":"VEC3"
		},
		{
			"bufferView":2,
			"componentType":5126,
			"count":1597,
			"type":"VEC2"
		},
		{
			"bufferView":3,
			"componentType":5121,
			"count":1597,
			"type":"VEC4"
		},
		{
			"bufferView":4,
			"componentType":5126,
			"count":1597,
			"type":"VEC4"
		},
		{
			"bufferView":5,
			"componentType":5123,
			"count":2688,
			"type":"SCALAR"
		},
		{
			"bufferView":6,
			"componentType":5126,
			"count":1,
			"type":"MAT4"
		},
		{
			"bufferView":7,
			"componentType":5126,
			"count":2,
			"max":[
				3
			],
			"min":[
				0
			],
			"type":"SCALAR"
		},
		{
			"bufferView":8,
			"componentType":5126,
			"count":2,
			"type":"VEC3"
		},
		{
			"bufferView":9,
			"componentType":5126,
			"count":73,
			"max":[
				3
			],
			"min":[
				0
			],
			"type":"SCALAR"
		},
		{
			"bufferView":10,
			"componentType":5126,
			"count":73,
			"type":"VEC4"
		},
		{
			"bufferView":11,
			"componentType":5126,
			"count":2,
			"type":"VEC3"
		}
	],
	"bufferViews":[
		{
			"buffer":0,
			"byteLength":19164,
			"byteOffset":0,
			"target":34962
		},
		{
			"buffer":0,
			"byteLength":19164,
			"byteOffset":19164,
			"target":34962
		},
		{
			"buffer":0,
			"byteLength":12776,
			"byteOffset":38328,
			"target":34962
		},
		{
			"buffer":0,
			"byteLength":6388,
			"byteOffset":51104,
			"target":34962
		},
		{
			"buffer":0,
			"byteLength":25552,
			"byteOffset":57492,
			"target":34962
		},
		{
			"buffer":0,
			"byteLength":5376,
			"byteOffset":83044,
			"target":34963
		},
		{
			"buffer":0,
			"byteLength":64,
			"byteOffset":88420
		},
		{
			"buffer":0,
			"byteLength":8,
			"byteOffset":88484
		},
		{
			"buffer":0,
			"byteLength":24,
			"byteOffset":88492
		},
		{
			"buffer":0,
			"byteLength":292,
			"byteOffset":88516
		},
		{
			"buffer":0,
			"byteLength":1168,
			"byteOffset":88808
		},
		{
			"buffer":0,
			"byteLength":24,
			"byteOffset":89976
		}
	],
	"samplers":[
		{
			"magFilter":9729,
			"minFilter":9987
		}
	],
	"buffers":[
		{
			"byteLength":90000,
			"uri":"gear.bin"
		}
	]
}
